<svg id="Vrstva_1" data-name="Vrstva 1" xmlns="http://www.w3.org/2000/svg" viewBox="0 0 363.28 70.13"><defs><style>.cls-1{fill:none;stroke-width:3px;}.cls-1,.cls-2{stroke:#f6a316;stroke-miterlimit:10;}.cls-2{font-size:32px;fill:#f6a316;font-family:Montserrat-Bold, Montserrat;font-weight:700;}.cls-3{letter-spacing:-0.05em;}.cls-4{letter-spacing:-0.01em;}.cls-5{letter-spacing:0em;}.cls-6{letter-spacing:-0.03em;}.cls-7{letter-spacing:0em;}.cls-8{font-size:15px;fill:#fff;font-family:Montserrat-Light, Montserrat;font-weight:300;}.cls-9{letter-spacing:-0.01em;}.cls-10{letter-spacing:-0.01em;}.cls-11{letter-spacing:0em;}.cls-12{letter-spacing:0em;}.cls-13{letter-spacing:0em;}.cls-14{letter-spacing:0em;}</style></defs><path class="cls-1" d="M71.16,16.43H35.87a3,3,0,0,0-2.6,1.5L15.63,48.5a3,3,0,0,0,0,3L33.27,82.07a3,3,0,0,0,2.6,1.5H71.16a3,3,0,0,0,2.6-1.5L91.41,51.5a3,3,0,0,0,0-3L73.76,17.93A3,3,0,0,0,71.16,16.43Z" transform="translate(-13.72 -14.93)"/><text class="cls-2" transform="translate(82.34 38.85)"><tspan class="cls-3">V</tspan><tspan class="cls-4" x="22.11" y="0">č</tspan><tspan x="40.8" y="0">ela</tspan><tspan class="cls-5" x="90.37" y="0">ř</tspan><tspan x="104.1" y="0">s</tspan><tspan class="cls-6" x="121.09" y="0">k</tspan><tspan class="cls-7" x="141.22" y="0">ý spolek</tspan></text><text class="cls-8" transform="translate(86.23 56.66)">již od <tspan class="cls-9" x="42.58" y="0">r</tspan><tspan x="48.28" y="0">o</tspan><tspan class="cls-10" x="57.58" y="0">k</tspan><tspan class="cls-11" x="66.25" y="0">u </tspan><tspan class="cls-12" x="80.14" y="0">2</tspan><tspan class="cls-13" x="88.53" y="0">0</tspan><tspan class="cls-14" x="98.38" y="0">23</tspan></text></svg>